<svg width="65" height="38" viewBox="0 0 65 38" fill="none" xmlns="http://www.w3.org/2000/svg">
<path d="M60.3704 31.0587L59.9337 33.6714H59.0103L58.8099 34.244H59.719V34.9169H58.6667L58.2229 35.4609H52.0742L51.7163 36.0479H50.5782L49.9912 36.7565H46.6484V37.3649L47.3213 37.7801H64.5936V31.0587H60.3704Z" fill="#00234F"/>
<path d="M60.3707 30.2139H64.6082V14.4448L52.504 22.9199L46.3553 12.2902L40.2638 19.9064L32.2254 9.39839L23.736 20.0853L17.6588 12.3904L10.0355 22.7195L0 14.1227V30.1495L27.7874 30.1566L26.2914 27.1646L33.5067 27.7158V21.8963H34.0006L34.2439 27.7158H38.2023V25.2749H38.5173L38.6318 24.5877H40.2352L41.0942 20.8011L41.359 20.7868L41.0441 24.5591L44.2508 24.5519L44.6016 23.2062H47.4791L47.0639 23.6572L47.114 24.2727H49.8484L49.9772 25.1102L51.8383 25.1174L51.9958 25.554L57.9728 25.5326L58.2805 26.2627H59.7265L59.7479 27.0214L58.4738 27.0286L58.6384 27.6442L60.0844 27.637L60.3635 30.171" fill="#00234F"/>
<path d="M0 30.9941V37.7799H33.4852L33.4709 33.3634L26.2914 33.8501L27.7874 30.9941H0Z" fill="#00234F"/>
<path d="M34.1501 33.4637L34.1357 37.78H40.7354L40.5636 36.785L38.9459 36.7779L38.8457 36.1694L38.5021 36.1551L38.5165 33.4637H34.1501Z" fill="#00234F"/>
<path d="M32.461 6.68558C34.3077 6.68558 35.8037 5.18956 35.8037 3.34279C35.8037 1.49602 34.3077 0 32.461 0C30.6142 0 29.1182 1.49602 29.1182 3.34279C29.1182 5.18956 30.6142 6.68558 32.461 6.68558Z" fill="#EE3124"/>
<path d="M27.7871 30.128V30.9941H60.4276L60.3704 30.128H27.7871Z" fill="#00234F"/>
</svg>
